PathFileType	4	(X/Y/Z)	C:/Users/beibeiliu/ov580/test_trc\sequence.33_training_dense_right.trc
DataRate	CameraRate	NumFrames	NumMarkers	Units	OrigDataRate	OrigDataStartFrame	OrigNumFrames
120	120	20	19	mm	120	94	373
Frame#	Time	ThumbCMC			ThumbMCP			ThumbIP			ThumbTip			IndexMCP			IndexPIP			IndexTip			MiddleMCP			MiddlePIP			MiddleTip			RingMCP			RingPIP			RingTip			PinkyMCP			PinkyPIP			PinkyTip			BackHand1			BackHand2			BackHand3	
		X0	Y0	Z0	X1	Y1	Z1	X2	Y2	Z2	X3	Y3	Z3	X4	Y4	Z4	X5	Y5	Z5	X6	Y6	Z6	X7	Y7	Z7	X8	Y8	Z8	X9	Y9	Z9	X10	Y10	Z10	X11	Y11	Z11	X12	Y12	Z12	X13	Y13	Z13	X14	Y14	Z14	X15	Y15	Z15	X16	Y16	Z16	X17	Y17	Z17	X18	Y18	Z18	
93	0.775	146.229	-15.7779	28.2221	133.475	-31.7059	5.2323	132.351	-35.1654	-21.0573	137.391	-43.6967	-41.1818	147.288	4.86983	-32.4763	145.133	-17.4064	-50.513	157.351	-40.0755	-31.7453	168.529	19.1207	-31.59	170.901	22.3219	-62.4895	169.543	17.5502	-87.206	190.923	17.0003	-27.9401	194.021	22.7149	-47.2081	192.723	26.6858	-67.5731	212.009	6.1403	-15.7049	219.593	12.6076	-27.6875	226.524	23.8077	-41.2023	193.418	10.1014	13.1537	190.211	2.87938	43.1764	165.051	11.5794	26.1139	
94	0.783333	147.746	-19.3818	31.5098	134.031	-34.13	7.84334	131.199	-38.6263	-19.7672	141.955	-44.238	-41.3236	149.324	2.42608	-33.7437	148.878	-21.5549	-50.2782	153.013	-43.0722	-32.0452	168.923	17.9992	-33.6059	168.276	20.0119	-61.8498	168.778	16.3794	-87.8228	191.608	16.9156	-27.2493	194.93	21.9158	-47.37	195.96	26.963	-67.8744	207.63	4.46656	-14.1355	215.604	12.9737	-28.8757	225.212	26.4251	-41.9654	192.291	7.48325	13.7274	192.37	3.9118	37.7129	163.241	9.03838	30.5201	
95	0.791667	144.212	-20.3751	29.5568	132.151	-35.6208	6.68301	131.876	-40.4358	-21.5573	142.312	-44.4708	-38.2841	145.838	1.65356	-31.0343	148.514	-21.9343	-50.0502	153.533	-43.655	-32.327	171.235	15.8342	-32.072	166.291	19.3535	-59.6343	168.623	16.3739	-85.2284	188.652	14.7827	-25.2651	191.556	21.4929	-47.0132	193.166	26.5989	-68.2206	207.84	5.87818	-14.9136	217.255	13.7259	-29.9278	223.513	23.7379	-40.5764	188.942	8.63135	15.3742	191.236	4.47953	39.4526	165.811	8.69095	25.9368	
96	0.8	142.538	-21.0934	29.1107	136.765	-34.6717	3.4533	133.931	-41.3847	-17.427	141.669	-46.8524	-39.5683	143.692	-0.000891106	-31.9785	143.805	-21.2877	-49.8193	157.165	-44.1162	-35.1644	165.374	15.6969	-36.754	167.55	18.0364	-60.6034	164.732	15.8505	-83.28	190.491	13.0176	-25.2478	191.276	22.1471	-51.2224	187.679	27.2283	-70.6511	211.061	4.31105	-12.3245	213.155	14.0341	-31.4043	221.598	24.3191	-37.4955	187.155	6.28847	16.6076	187.422	3.93385	39.1632	163.275	6.53158	30.245	
97	0.808333	142.112	-23.4624	28.7977	136.685	-35.7581	5.11132	130.79	-44.3835	-17.0158	142.332	-47.6853	-39.1709	145.963	-0.184368	-32.3243	146.659	-22.6817	-49.6345	156.721	-45.1299	-34.1818	163.505	15.4502	-36.6361	162.105	16.6746	-59.3023	163.416	14.1367	-86.5999	188.467	14.7819	-28.9762	191.937	20.8226	-47.8622	191.64	26.1123	-69.3367	206.642	4.89884	-14.6899	217.073	13.7058	-30.5334	223.217	26.5569	-40.015	188.417	6.84116	13.6841	187.644	5.12987	38.7965	160.965	6.0169	27.6547	
98	0.816667	142.523	-25.123	32.3729	134.165	-39.4977	8.21303	134.256	-43.5091	-15.6884	140.858	-49.3946	-40.4614	146.209	-1.32891	-32.2587	148.845	-22.855	-50.5097	154.427	-48.1695	-32.6513	165.612	14.5705	-35.9262	163.046	15.9875	-62.2943	161.206	13.2215	-83.6281	188.055	12.4742	-25.6029	189.317	19.8381	-47.1483	189.025	24.5145	-67.5441	209.905	3.53587	-12.1851	211.534	14.6468	-32.0239	219.117	24.7143	-41.6704	184.893	5.44287	16.1576	188.707	2.9879	41.7988	158.736	4.95129	25.8945	
99	0.825	141.871	-23.9098	30.9714	135.311	-38.5426	7.30018	132.842	-43.3902	-18.5289	139.524	-49.5265	-41.2876	142.771	-3.3107	-31.2826	144.455	-22.9797	-49.7183	155.84	-47.374	-31.827	161.937	13.5296	-35.4728	162.706	14.4078	-58.8355	160.51	11.8803	-84.8894	186.555	12.8515	-27.4363	190.586	20.0539	-49.4964	191.053	24.1733	-69.2638	209.794	5.37482	-14.4052	215.942	12.134	-29.332	218.32	25.6635	-40.6525	186.379	5.41041	13.1638	190.129	3.63629	40.8316	159.982	3.27578	27.337	
100	0.833333	144.043	-23.7733	31.4128	132.246	-39.0629	7.41838	131.332	-45.7086	-14.941	141.745	-47.2179	-38.1145	146.083	-2.50208	-32.3215	145.952	-25.935	-50.3742	155.678	-46.3849	-35.2224	164.914	12.3235	-34.7429	164.273	14.6208	-60.9585	162.521	11.5599	-84.4047	187.205	12.4383	-25.1781	187.65	20.7067	-48.6727	188.659	24.9816	-72.614	206.627	3.28426	-13.3873	210.625	11.2567	-28.6239	220.397	23.2507	-40.6429	183.847	4.52333	15.1833	190.228	3.2701	39.621	160.918	5.52262	27.7273	
101	0.841667	141.328	-23.3157	28.5195	135.512	-37.2091	5.10918	130.188	-44.2309	-19.1975	136.068	-50.6147	-37.1284	141.675	-3.47272	-33.673	144.005	-24.7131	-50.1513	155.802	-48.1845	-32.6448	164.402	13.3862	-36.3676	161.926	14.1621	-58.5527	161.539	11.1399	-87.969	183.637	13.1454	-26.5741	187.202	19.9712	-48.7044	187.054	24.7821	-70.4183	204.24	2.2719	-13.7004	212.037	11.9233	-30.6947	219.099	24.7644	-40.6667	186.351	3.64305	17.5229	187.19	0.980308	41.1776	162.624	5.24656	27.1185	
102	0.85	145.3	-22.6001	30.0484	133.546	-38.0594	7.22287	129.801	-44.643	-18.2552	137.677	-50.042	-34.6692	144.711	-1.66806	-31.0119	146.335	-22.3589	-50.6354	155.41	-47.2146	-34.8329	165.532	13.3729	-33.6431	164.247	15.4046	-60.9355	165.483	11.4993	-89.4059	187.023	11.6416	-24.7906	187.218	19.9351	-47.2397	187.716	25.2053	-68.3732	206.25	5.06437	-15.6276	212.989	11.7327	-29.2824	220.419	23.009	-39.8028	184.924	6.69385	13.2627	189.507	2.87413	42.575	163.782	5.51103	28.1066	
103	0.858333	142.693	-23.4137	32.3968	134.952	-37.4157	7.96024	132.921	-43.0089	-15.19	138.555	-48.7868	-39.6425	147.088	-1.16787	-33.7136	145.164	-24.5717	-50.1028	152.487	-48.0856	-33.8309	168.371	13.1906	-33.79	162.3	14.9939	-60.6416	161.713	11.8079	-85.5664	186.082	13.811	-26.8065	189.051	19.6911	-46.3279	189.969	24.7926	-67.4729	209.092	5.55616	-15.1332	211.895	12.3096	-27.7672	218.962	24.3423	-38.7048	188.139	6.88888	14.7827	188.242	3.56692	42.106	159.769	5.53835	29.4715	
104	0.866667	147.458	-22.4929	32.1642	132.029	-37.5075	6.19591	133.946	-41.8426	-16.8373	139.685	-47.9609	-36.068	142.773	0.326803	-30.4932	143.558	-22.7835	-51.1272	155.584	-44.8539	-36.8982	163.03	15.5505	-34.949	164.96	16.7836	-59.573	165.565	12.7027	-85.4454	188.234	14.3732	-26.1949	186.814	22.028	-48.4115	192.34	25.4611	-69.2676	207.763	5.00128	-12.8303	214.052	12.6406	-28.0792	219.044	27.5694	-42.2359	187.662	6.97787	18.5083	190.235	2.38543	43.0755	164.921	4.4201	29.5014	
105	0.875	145.395	-20.8947	30.3624	133.087	-37.271	5.52337	132.25	-42.9197	-19.568	141.515	-46.9956	-39.8881	143.742	1.27402	-33.0615	144.208	-19.2862	-50.928	153.33	-42.8445	-38.8612	165.337	15.8437	-34.6426	165.05	17.7949	-57.3592	164.575	12.6128	-85.9364	185.732	16.2264	-28.4735	186.151	22.7139	-49.4946	188.681	26.4052	-66.7169	207.631	6.20277	-14.1124	212.957	15.3898	-31.7452	219.013	25.855	-41.4146	187.113	7.664	15.0631	187.271	4.18853	41.8211	160.957	5.47371	26.7216	
106	0.883333	141.481	-21.574	30.5401	132.31	-36.4487	5.32428	133.341	-40.8533	-20.6004	141.503	-46.3631	-37.8739	147.451	2.5653	-33.6693	147.789	-15.4287	-51.9596	156.169	-42.3113	-37.6055	168.387	16.8384	-36.2261	166.515	18.989	-61.512	166.081	12.9547	-89.9134	186.324	16.8502	-27.5437	187.98	22.355	-47.3679	187.939	26.205	-67.0314	209.238	4.99725	-12.8361	217.22	14.6957	-31.2906	222.844	24.0487	-39.4864	191.023	10.0888	15.1391	191.715	4.6946	42.1481	162.058	7.89561	25.8147	
107	0.891667	142.654	-21.8779	30.0995	137.278	-34.2744	3.02122	135.301	-38.9118	-22.1271	141.091	-45.3255	-42.1196	145.243	3.74476	-33.09	144.32	-19.2581	-52.3763	155.656	-43.0738	-34.5202	166.163	18.2543	-37.2797	164.782	18.5665	-60.9713	169.556	14.2383	-85.5515	186.784	15.7717	-27.3787	192.505	23.6381	-50.5936	189.439	26.0596	-68.7963	210.302	6.90366	-15.9027	214.287	13.4465	-28.3519	219.426	26.2868	-42.5844	190.89	8.53816	14.9869	188.07	5.70918	39.0503	162.254	7.20736	27.5633	
108	0.9	145.758	-20.109	29.7804	134.115	-33.0961	0.780629	131.274	-39.6831	-21.7475	142.023	-42.5035	-42.3919	146.83	5.19365	-32.1061	147.401	-18.8782	-52.8144	154.783	-42.1586	-35.2899	166.298	16.9403	-32.0597	169.535	20.2979	-60.0543	167.234	14.2909	-86.1186	188.204	18.0058	-29.4261	193.114	24.2585	-49.8265	193.476	27.9866	-71.8448	210.067	8.7119	-18.3662	212.922	13.5973	-30.2034	221.865	25.733	-43.5499	191.464	7.94299	15.9607	186.344	6.2449	39.8547	162.329	9.72968	27.7312	
109	0.908333	142.765	-19.0165	29.5071	134.868	-31.098	4.11	133.208	-36.0628	-23.4642	142.495	-39.4617	-43.0713	145.105	6.24658	-30.1086	145.983	-12.88	-52.1959	156.121	-41.3262	-37.7353	169.515	20.1538	-36.6247	164.803	20.6676	-60.1324	170	16.5141	-85.7385	191.142	18.604	-27.6421	193.197	24.7304	-47.0282	192.588	27.7561	-69.6691	207.12	10.3144	-16.6873	214.942	15.8916	-33.0097	219.317	24.5238	-47.9431	189.228	9.41366	16.2753	189.701	7.40194	40.7577	163.473	7.4006	28.6709	
110	0.916667	141.474	-17.4051	26.2745	133.617	-31.1928	1.60613	129.639	-35.9847	-20.9727	138.441	-38.6358	-45.9502	149.169	8.41783	-30.923	148.801	-13.4879	-53.0645	153.768	-39.4035	-41.4859	165.238	20.724	-32.2748	167.307	22.0318	-63.4614	168.978	16.9223	-88.1291	189.073	18.7254	-25.0402	187.652	27.1491	-51.2212	188.933	27.109	-68.5882	207.954	11.451	-16.2907	210.778	16.3395	-33.7863	220.849	24.64	-49.626	189.938	9.92423	17.6803	188.17	4.33732	42.9619	161.62	10.684	27.295	
111	0.925	144.94	-16.7447	26.2733	135.079	-29.2442	2.48977	129.871	-33.1379	-20.1162	137.538	-35.4594	-43.5082	147.848	10.4097	-32.1709	147.627	-10.5744	-54.0703	152.991	-36.9338	-42.6871	168.173	23.0217	-32.8025	164.989	24.6082	-58.9757	167.824	16.6659	-89.7214	189.988	21.0985	-25.8931	187.684	26.5949	-49.9653	189.255	26.7583	-73.6206	205.4	10.3892	-15.3211	211.375	15.9113	-35.335	217.54	20.4997	-52.0859	184.996	12.8712	14.9775	190.14	7.01704	41.2007	161.017	10.1971	31.3554	
112	0.933333	143.83	-14.8698	26.4319	136.782	-24.3393	-0.450092	131.796	-28.9156	-21.4087	137.175	-31.5945	-45.8441	145.759	12.2086	-30.5418	149.088	-6.67579	-54.3282	154.256	-30.4094	-47.0694	165.159	26.2534	-35.7711	168.329	28.2032	-58.4091	166.256	18.8153	-87.0619	186.311	24.7323	-26.9255	187.891	28.5953	-52.0958	189.397	24.0525	-75.8973	207.606	12.8035	-16.2557	213.646	17.247	-37.8423	213.595	16.3042	-58.1428	188.481	16.641	15.6159	188.566	8.90936	41.1521	161.788	10.6861	28.4189	
